<svg width="30" height="30" viewBox="0 0 30 30" fill="none" xmlns="http://www.w3.org/2000/svg">
<path d="M15 0.0981445C13.0302 0.0981445 11.0796 0.486131 9.25975 1.23995C7.43986 1.99377 5.78628 3.09866 4.3934 4.49154C1.58035 7.30459 0 11.1199 0 15.0981C0 21.7281 4.305 27.3531 10.26 29.3481C11.01 29.4681 11.25 29.0031 11.25 28.5981V26.0631C7.095 26.9631 6.21 24.0531 6.21 24.0531C5.52 22.3131 4.545 21.8481 4.545 21.8481C3.18 20.9181 4.65 20.9481 4.65 20.9481C6.15 21.0531 6.945 22.4931 6.945 22.4931C8.25 24.7731 10.455 24.0981 11.31 23.7381C11.445 22.7631 11.835 22.1031 12.255 21.7281C8.925 21.3531 5.43 20.0631 5.43 14.3481C5.43 12.6831 6 11.3481 6.975 10.2831C6.825 9.90814 6.3 8.34814 7.125 6.32314C7.125 6.32314 8.385 5.91814 11.25 7.85314C12.435 7.52314 13.725 7.35814 15 7.35814C16.275 7.35814 17.565 7.52314 18.75 7.85314C21.615 5.91814 22.875 6.32314 22.875 6.32314C23.7 8.34814 23.175 9.90814 23.025 10.2831C24 11.3481 24.57 12.6831 24.57 14.3481C24.57 20.0781 21.06 21.3381 17.715 21.7131C18.255 22.1781 18.75 23.0931 18.75 24.4881V28.5981C18.75 29.0031 18.99 29.4831 19.755 29.3481C25.71 27.3381 30 21.7281 30 15.0981C30 13.1283 29.612 11.1778 28.8582 9.35789C28.1044 7.53801 26.9995 5.88442 25.6066 4.49154C24.2137 3.09866 22.5601 1.99377 20.7403 1.23995C18.9204 0.486131 16.9698 0.0981445 15 0.0981445Z" fill="#E2F1FF"/>
</svg>
